<!--?xml version="1.0" encoding="utf-8"?-->
<!-- Generator: Adobe Illustrator 18.1.1, SVG Export Plug-In . SVG Version: 6.00 Build 0)  -->

<svg version="1.1" id="_x32_" xmlns="http://www.w3.org/2000/svg" xmlns:xlink="http://www.w3.org/1999/xlink" x="0px" y="0px" viewBox="0 0 512 512" style="width: 256px; height: 256px; opacity: 1;" xml:space="preserve">
<style type="text/css">
	.st0{fill:#4B4B4B;}
</style>
<g>
	<path class="st0" d="M265.771,394.438c-85.91-108.512,26.687-187.388,36.486-249.025c15.86-99.727-73.055-125.767-73.055-125.767
		c10.545,33.123-14.781,82.696-61.696,122.337c-49.639,41.925-85.576,108.769-86.457,171.678c-0.382,4.874-0.647,9.789-0.647,14.764
		C80.401,429.811,162.589,512,263.976,512c42.149,0,80.978-14.208,111.966-38.096c0,0,14.216-11.85,20.344-18.227
		C396.287,455.677,313.449,451.699,265.771,394.438z" style="fill: rgb(75, 75, 75);"></path>
	<path class="st0" d="M408.426,271.894c-14.997-19.987-26.871-38.413-26.09-55.261c0.764-16.848,16.89-49.124,16.89-49.124
		c-42.996,1.536-102.865,39.915-111.053,129.462c-8.054,88.151,86.474,140.721,109.508,119.231
		C454.478,356.324,426.843,296.455,408.426,271.894z" style="fill: rgb(75, 75, 75);"></path>
	<path class="st0" d="M348.74,134.244c15.478,5.597,41.269-9.283,44.175-45.496c2.889-36.22-31.354-70.813-23.068-88.749
		c-23.831,14.93-38.512,53.425-29.361,77C349.62,100.573,360.796,121.598,348.74,134.244z" style="fill: rgb(75, 75, 75);"></path>
</g>
</svg>
